<svg
            width="125"
            height="29.688"
            viewBox="0 0 160 38"
            fill="none"
            xmlns="http://www.w3.org/2000/svg">
            <g clip-path="url(#clip0_35_5898)">
              <path
                d=
                  "M59.4787 22.0077H59.4301L56.3725 9.66504H52.6884L49.5672 21.8581H49.5167L46.6928 9.67252H42.7656L47.5026 27.5731H51.4878L54.4687 15.3894H54.5192L57.5525 27.5731H61.4629L66.2671 9.67252H62.4073L59.4787 22.0077ZM78.2713 15.7279C77.8945 15.2479 77.3978 14.8757 76.8313 14.6489C76.0834 14.3668 75.287 14.2352 74.4881 14.2617C73.772 14.2727 73.068 14.4487 72.431 14.776C71.7042 15.1402 71.1016 15.7116 70.6993 16.418H70.6245V9.67252H67.0713V27.5731H70.6245V20.779C70.6245 19.4587 70.8414 18.51 71.2753 17.9327C71.7091 17.3555 72.411 17.0675 73.381 17.0688C74.2319 17.0688 74.8266 17.3324 75.1595 17.8598C75.4923 18.3872 75.6606 19.1838 75.6606 20.2535V27.5731H79.2138V19.6009C79.2193 18.8642 79.1479 18.129 79.0006 17.4072C78.8851 16.8003 78.6359 16.2267 78.2713 15.7279ZM92.9329 24.6875V17.9552C92.9329 17.1685 92.7577 16.537 92.4074 16.0608C92.0558 15.5813 91.5914 15.1958 91.0553 14.9387C90.4771 14.6646 89.8592 14.4834 89.2245 14.402C88.5682 14.3109 87.9066 14.2647 87.244 14.2636C86.5238 14.2628 85.8053 14.3336 85.099 14.4749C84.4238 14.6032 83.775 14.8447 83.1803 15.1893C82.6167 15.5179 82.1367 15.9723 81.7777 16.5171C81.3864 17.1424 81.1694 17.8611 81.1494 18.5985H84.7026C84.7699 17.8972 85.0055 17.3942 85.4057 17.1024C85.8059 16.8107 86.367 16.6461 87.0701 16.6461C87.3673 16.6447 87.6642 16.6654 87.9584 16.7078C88.2152 16.7419 88.4626 16.8271 88.6859 16.9584C88.8973 17.086 89.0704 17.2682 89.1871 17.4858C89.325 17.7701 89.3893 18.0846 89.3741 18.4003C89.3924 18.5561 89.3723 18.7141 89.3156 18.8605C89.2589 19.0068 89.1672 19.1371 89.0487 19.2399C88.766 19.4547 88.4388 19.6036 88.0912 19.6757C87.6382 19.7859 87.1774 19.8615 86.7129 19.902C86.193 19.9531 85.6669 20.0198 85.1346 20.1021C84.5983 20.1866 84.067 20.3002 83.5431 20.4424C83.0415 20.5719 82.5663 20.7877 82.1387 21.0801C81.7195 21.3768 81.3755 21.7674 81.1344 22.2209C80.8567 22.7853 80.7237 23.41 80.7473 24.0386C80.7319 24.6331 80.8475 25.2236 81.0858 25.7685C81.2978 26.2383 81.6182 26.651 82.0209 26.9728C82.4369 27.2978 82.9138 27.5362 83.4234 27.6741C83.9868 27.8292 84.569 27.9054 85.1533 27.9004C85.951 27.9005 86.7444 27.7826 87.5077 27.5507C88.2708 27.3189 88.9617 26.8952 89.5143 26.3201C89.5301 26.535 89.5595 26.7486 89.6022 26.9597C89.6432 27.1675 89.6976 27.3723 89.7649 27.5731H93.3742C93.1748 27.201 93.055 26.7915 93.0226 26.3706C92.9575 25.812 92.9276 25.2499 92.9329 24.6875ZM89.3797 22.5556C89.3758 22.8241 89.3552 23.092 89.318 23.3579C89.2711 23.7072 89.1561 24.044 88.9795 24.3491C88.7723 24.6977 88.4786 24.987 88.1267 25.1887C87.744 25.4231 87.201 25.5403 86.4979 25.5403C86.2206 25.5406 85.9438 25.5149 85.6713 25.4636C85.4228 25.4213 85.1848 25.3318 84.97 25.1999C84.7684 25.0745 84.6038 24.8976 84.4931 24.6875C84.3692 24.4387 84.3088 24.1631 84.3173 23.8853C84.3072 23.5989 84.3675 23.3144 84.4931 23.0568C84.6058 22.8451 84.7642 22.6611 84.9569 22.5182C85.1625 22.3691 85.3912 22.2547 85.6339 22.1797C85.8924 22.0962 86.156 22.0293 86.4231 21.9796C86.7073 21.931 86.9841 21.8861 87.274 21.8543C87.5638 21.8225 87.835 21.7777 88.0893 21.729C88.3355 21.6823 88.5785 21.6198 88.8168 21.542C89.0235 21.4781 89.2146 21.3717 89.3778 21.2297L89.3797 22.5556ZM99.5811 10.7235H96.0279V14.6115H93.8623V16.994H96.0167V24.6408C95.9933 25.1857 96.1051 25.7279 96.3421 26.2192C96.5448 26.6085 96.8534 26.9326 97.2322 27.1542C97.6371 27.3812 98.0813 27.5297 98.5413 27.5918C99.0595 27.6685 99.5827 27.706 100.107 27.704C100.46 27.704 100.817 27.704 101.186 27.6797C101.522 27.667 101.856 27.6332 102.188 27.5787V24.8147C102.014 24.8515 101.838 24.8771 101.661 24.8914C101.474 24.9082 101.287 24.9176 101.085 24.9176C100.484 24.9176 100.082 24.8147 99.8803 24.6146C99.6783 24.4145 99.5811 24.0143 99.5811 23.4121V16.994H102.188V14.6115H99.5755L99.5811 10.7235ZM114.293 21.8917C114.06 21.4852 113.741 21.1342 113.358 20.8632C112.956 20.5788 112.515 20.3545 112.049 20.1974C111.557 20.0329 111.05 19.8907 110.532 19.7729C110.014 19.6551 109.539 19.5466 109.055 19.4475C108.618 19.3595 108.187 19.2465 107.763 19.109C107.429 19.0069 107.119 18.8404 106.85 18.6191C106.736 18.5251 106.645 18.4063 106.584 18.2718C106.524 18.1372 106.494 17.9906 106.499 17.843C106.485 17.6146 106.554 17.389 106.693 17.2071C106.825 17.0459 106.993 16.9178 107.183 16.8331C107.386 16.7477 107.601 16.6928 107.821 16.6704C108.038 16.651 108.257 16.6429 108.475 16.6461C109.049 16.6315 109.617 16.756 110.132 17.0089C110.598 17.2502 110.858 17.7139 110.906 18.4003H114.291C114.255 17.6944 114.043 17.0087 113.676 16.4049C113.347 15.8911 112.906 15.4588 112.386 15.1407C111.841 14.8125 111.243 14.5833 110.618 14.4637C109.947 14.3286 109.263 14.2615 108.578 14.2636C107.888 14.2628 107.2 14.3254 106.521 14.4506C105.887 14.5636 105.276 14.7844 104.716 15.1033C104.185 15.4076 103.741 15.8428 103.426 16.3675C103.077 16.9953 102.908 17.707 102.938 18.4246C102.922 18.9282 103.043 19.4267 103.289 19.8664C103.523 20.2589 103.843 20.5933 104.225 20.8445C104.63 21.1131 105.07 21.3239 105.534 21.471C106.025 21.6299 106.532 21.7683 107.048 21.8843C108.057 22.0797 109.05 22.3485 110.02 22.6884C110.731 22.954 111.086 23.3548 111.086 23.8909C111.097 24.1714 111.018 24.4481 110.86 24.6801C110.712 24.8865 110.52 25.0576 110.299 25.1812C110.064 25.3099 109.812 25.4026 109.551 25.4562C109.291 25.5142 109.027 25.5443 108.761 25.5459C108.42 25.5465 108.079 25.5045 107.748 25.4206C107.438 25.3437 107.145 25.212 106.882 25.0316C106.63 24.8539 106.42 24.6228 106.267 24.3547C106.102 24.0508 106.02 23.709 106.029 23.3635H102.633C102.637 24.1257 102.84 24.8736 103.222 25.5328C103.568 26.0964 104.04 26.5725 104.6 26.9242C105.19 27.2856 105.84 27.5389 106.519 27.6722C107.244 27.8241 107.982 27.8999 108.722 27.8985C109.45 27.8992 110.177 27.8278 110.891 27.6853C111.563 27.5562 112.205 27.3025 112.784 26.9373C113.381 26.5675 113.867 26.0446 114.193 25.423C114.519 24.8014 114.672 24.1038 114.637 23.4028C114.654 22.8785 114.533 22.3589 114.288 21.8955L114.293 21.8917ZM121.36 9.66878L114.594 27.5694H118.553L119.958 23.5842H126.649L128.001 27.5694H132.089L125.392 9.67252L121.36 9.66878ZM120.986 20.65L123.318 14.0822H123.367L125.624 20.65H120.986ZM144.381 16.3675C143.893 15.7275 143.267 15.2048 142.55 14.8377C141.734 14.4346 140.831 14.2369 139.921 14.2617C139.159 14.252 138.405 14.4144 137.714 14.7367C137.027 15.0762 136.455 15.6101 136.069 16.2721H136.018V14.6115H132.633V32.1118H136.186V25.9704H136.235C136.652 26.5909 137.228 27.0881 137.903 27.4104C138.596 27.7401 139.354 27.9076 140.121 27.9004C140.985 27.9168 141.84 27.7244 142.614 27.3393C143.309 26.9832 143.918 26.4774 144.394 25.8582C144.88 25.2213 145.242 24.4987 145.46 23.7282C145.694 22.9136 145.812 22.0699 145.81 21.2222C145.813 20.3285 145.695 19.4384 145.46 18.5761C145.245 17.7778 144.878 17.0282 144.381 16.3675ZM142.101 22.6604C142.013 23.1249 141.839 23.5689 141.587 23.9694C141.163 24.5659 140.536 24.9878 139.823 25.1564C139.111 25.3249 138.361 25.2288 137.714 24.8858C137.324 24.6618 136.993 24.3476 136.749 23.9694C136.497 23.5684 136.318 23.1249 136.224 22.6604C136.114 22.1585 136.06 21.6462 136.061 21.1325C136.059 20.6103 136.109 20.0891 136.209 19.5766C136.299 19.1057 136.474 18.6552 136.725 18.2469C136.965 17.8653 137.291 17.5451 137.677 17.3119C138.121 17.0518 138.629 16.9222 139.143 16.9379C139.649 16.9242 140.148 17.0539 140.583 17.3119C140.974 17.5505 141.304 17.8763 141.548 18.2638C141.806 18.675 141.988 19.1291 142.087 19.6046C142.196 20.1077 142.251 20.6213 142.249 21.1362C142.252 21.6476 142.205 22.1581 142.109 22.6604H142.101ZM159.645 18.5854C159.431 17.7836 159.065 17.0305 158.566 16.3675C158.078 15.7275 157.453 15.2049 156.737 14.8377C155.92 14.4349 155.016 14.2372 154.106 14.2617C153.344 14.2526 152.591 14.415 151.901 14.7367C151.214 15.0767 150.641 15.6104 150.253 16.2721H150.205V14.6115H146.812V32.1118H150.365V25.9704H150.416C150.833 26.5904 151.408 27.0875 152.082 27.4104C152.775 27.7401 153.533 27.9076 154.3 27.9004C155.165 27.9168 156.021 27.7244 156.795 27.3393C157.49 26.9832 158.097 26.4773 158.573 25.8582C159.059 25.2213 159.421 24.4987 159.639 23.7282C159.875 22.9138 159.993 22.07 159.991 21.2222C159.997 20.3321 159.884 19.4451 159.652 18.5854H159.645ZM156.279 22.6604C156.191 23.1252 156.017 23.5693 155.764 23.9694C155.502 24.3715 155.143 24.7018 154.721 24.9303C154.298 25.1589 153.826 25.2786 153.345 25.2786C152.865 25.2786 152.393 25.1589 151.97 24.9303C151.548 24.7018 151.189 24.3715 150.926 23.9694C150.674 23.568 150.496 23.1246 150.401 22.6604C150.293 22.1583 150.238 21.6461 150.238 21.1325C150.237 20.6102 150.287 20.0891 150.388 19.5766C150.485 19.1042 150.667 18.6536 150.926 18.2469C151.168 17.8661 151.493 17.5461 151.878 17.3119C152.322 17.0518 152.83 16.9222 153.345 16.9379C153.85 16.924 154.349 17.0537 154.785 17.3119C155.176 17.5505 155.507 17.8762 155.751 18.2638C156.009 18.675 156.192 19.1291 156.29 19.6046C156.399 20.1077 156.454 20.6213 156.453 21.1362C156.449 21.6482 156.396 22.1587 156.294 22.6604H156.279Z"
                fill="white"
              />
              <path
                d=
                  "M36.864 17.7659C36.6905 13.0141 34.688 8.51307 31.2747 5.20259C27.8614 1.89212 23.3013 0.0281839 18.5464 5.08648e-06H18.4566C15.2546 -0.0023727 12.1071 0.828951 9.32389 2.41218C6.54066 3.9954 4.21759 6.27598 2.58326 9.0295C0.948918 11.783 0.0596307 14.9146 0.00289589 18.1161C-0.0538389 21.3176 0.723934 24.4788 2.25968 27.2885L0.628958 37.0467C0.626302 37.0667 0.62794 37.087 0.633764 37.1064C0.639587 37.1257 0.649464 37.1436 0.662734 37.1588C0.676005 37.174 0.692365 37.1862 0.710726 37.1946C0.729086 37.203 0.749026 37.2074 0.769216 37.2075H0.797267L10.4488 35.0606C12.9425 36.2579 15.6735 36.8791 18.4398 36.8783C18.6156 36.8783 18.7914 36.8783 18.9671 36.8783C21.4005 36.8089 23.796 36.2582 26.0154 35.2581C28.2347 34.258 30.2341 32.8282 31.898 31.0513C33.5619 29.2744 34.8574 27.1855 35.7097 24.9053C36.5621 22.6251 36.9544 20.1986 36.864 17.7659ZM18.8755 33.6711C18.7296 33.6711 18.5838 33.6711 18.4398 33.6711C15.9949 33.6742 13.5852 33.0892 11.4138 31.9656L10.9201 31.7075L4.37477 33.2541L5.58285 26.6321L5.30233 26.1571C3.96255 23.8728 3.24091 21.2789 3.20847 18.631C3.17604 15.983 3.83393 13.3722 5.11736 11.0558C6.40078 8.73942 8.26547 6.79729 10.5278 5.42073C12.79 4.04416 15.3719 3.28063 18.019 3.20535C18.1661 3.20535 18.3139 3.20535 18.4622 3.20535C22.4589 3.2172 26.2909 4.79863 29.1327 7.6089C31.9745 10.4192 33.5986 14.2334 33.655 18.2296C33.7114 22.2259 32.1956 26.0844 29.4343 28.9738C26.673 31.8631 22.8871 33.5521 18.8923 33.6767L18.8755 33.6711Z"
                fill="white"
              />
              <path
                d="M12.0314 9.53784C11.8036 9.54228 11.5789 9.59241 11.3708 9.68524C11.1626 9.77807 10.9752 9.91173 10.8196 10.0783C10.3802 10.529 9.1515 11.6136 9.08043 13.8914C9.00937 16.1692 10.6008 18.4227 10.8234 18.7387C11.0459 19.0548 13.866 23.975 18.5113 25.9704C21.2417 27.1467 22.4385 27.3487 23.2146 27.3487C23.5344 27.3487 23.7757 27.315 24.0281 27.3C24.879 27.2477 26.7996 26.264 27.2185 25.1943C27.6374 24.1246 27.6655 23.1896 27.5551 23.0025C27.4448 22.8155 27.1418 22.6809 26.6855 22.4415C26.2292 22.2021 23.9907 21.0053 23.57 20.837C23.4139 20.7643 23.246 20.7206 23.0744 20.7079C22.9626 20.7138 22.8539 20.7468 22.7578 20.8042C22.6616 20.8615 22.581 20.9415 22.5227 21.0371C22.1487 21.5027 21.2903 22.5144 21.0023 22.8062C20.9394 22.8787 20.8619 22.9371 20.7749 22.9777C20.6879 23.0183 20.5934 23.0401 20.4974 23.0418C20.3205 23.0341 20.1475 22.9875 19.9906 22.9053C18.6346 22.3294 17.3984 21.5049 16.3458 20.4742C15.3622 19.5048 14.5278 18.395 13.8698 17.1809C13.6154 16.7097 13.8698 16.4666 14.1016 16.2459C14.3335 16.0252 14.5823 15.7204 14.8216 15.4567C15.0181 15.2314 15.1818 14.9796 15.3079 14.7087C15.3731 14.5829 15.4061 14.4429 15.4038 14.3012C15.4015 14.1595 15.3641 14.0206 15.2948 13.897C15.1844 13.6614 14.3597 11.3444 13.9726 10.4149C13.6584 9.62012 13.2844 9.59394 12.9571 9.56963C12.6879 9.55093 12.3793 9.54158 12.0707 9.53223H12.0314"
                fill="white"
              />
            </g>
            <defs>
              <clipPath id="clip0_35_5898">
                <rect width="160.0" height="37.2075" fill="white" />
              </clipPath>
            </defs>
          </svg>
